# xmcd
#
# Track frame offsets:
#	150
#	12641
#	26260
#	44097
#	58752
#	75323
#	91219
#	106603
#	123649
#	137631
#	151022
#	164453
#
# Disc length: 2398 seconds
#
# Revision: 1
# Processed by: cddbd v1.5.2PL0 Copyright (c) Steve Scherf et al.
# Submitted via: audiograbber 1.83.01
#
DISCID=8e095c0c
DTITLE=Haiyti - Montenegro Zero
DYEAR=2018
DGENRE=Hip-Hop
TTITLE0=100.000 Fans
TTITLE1=Sunny Driveby
TTITLE2=Gold
TTITLE3=Mafioso
TTITLE4=Berghain
TTITLE5=Kate Moss
TTITLE6=Bahama Mama
TTITLE7=Serienmodell
TTITLE8=Bitches
TTITLE9=Haubi
TTITLE10=Monacco
TTITLE11=American Dream
EXTD=
EXTT0=
EXTT1=
EXTT2=
EXTT3=
EXTT4=
EXTT5=
EXTT6=
EXTT7=
EXTT8=
EXTT9=
EXTT10=
EXTT11=
PLAYORDER=
